<?xml version="1.0" standalone="no"?>
<!DOCTYPE svg PUBLIC "-//W3C//DTD SVG 20010904//EN"
 "http://www.w3.org/TR/2001/REC-SVG-20010904/DTD/svg10.dtd">
<svg version="1.0" xmlns="http://www.w3.org/2000/svg"
 width="142.000000pt" height="142.000000pt" viewBox="0 0 142.000000 142.000000"
 preserveAspectRatio="xMidYMid meet">

<g transform="translate(0.000000,142.000000) scale(0.100000,-0.100000)"
fill="#000000" stroke="none">
<path d="M0 710 l0 -710 710 0 710 0 0 710 0 710 -710 0 -710 0 0 -710z m345
602 c-6 -4 -28 -21 -50 -36 l-40 -28 37 36 c21 20 43 36 50 36 7 0 8 -3 3 -8z
m759 -7 c11 -8 16 -15 10 -15 -5 0 -18 7 -28 15 -11 8 -16 15 -10 15 5 0 18
-7 28 -15z m-669 -120 c-128 -95 -196 -178 -237 -290 -27 -75 -36 -225 -18
-304 32 -143 149 -295 277 -360 291 -146 631 -22 759 277 26 60 26 55 -3 -75
-10 -46 -21 -83 -25 -83 -5 0 -8 -6 -8 -13 0 -17 -74 -91 -128 -129 -87 -60
-238 -108 -342 -108 -71 0 -192 30 -270 67 -104 50 -222 168 -274 273 -89 182
-86 380 9 558 51 96 66 110 163 158 87 44 137 58 97 29z m877 -88 c20 -38 0
-25 -31 21 -31 43 -31 45 -6 22 15 -14 31 -33 37 -43z m-181 -146 c34 -35 37
-66 14 -186 -12 -59 -22 -86 -42 -107 -26 -28 -28 -28 -154 -28 l-127 0 -10
-47 c-6 -27 -14 -65 -17 -85 l-7 -38 -54 0 c-30 0 -54 3 -54 8 1 4 13 68 28
142 l28 135 149 5 c149 5 149 5 156 30 4 14 7 37 8 53 l1 27 -305 0 c-168 0
-305 -4 -305 -9 0 -5 -3 -23 -6 -40 l-6 -31 101 0 c96 0 103 -1 125 -25 32
-35 37 -68 21 -152 -27 -140 -31 -143 -248 -143 l-169 0 5 23 c3 12 9 39 12
60 l7 37 144 0 c79 0 144 4 144 9 0 5 3 23 6 40 l7 31 -98 0 c-93 0 -97 1
-126 29 -23 24 -29 38 -29 74 0 78 21 156 51 188 l27 29 347 0 347 0 29 -29z
m-987 -656 l28 -40 -36 37 c-20 21 -36 43 -36 50 0 14 5 8 44 -47z m1162 23
c-18 -26 -22 -17 -5 14 6 11 13 17 16 15 3 -3 -2 -16 -11 -29z m-178 -183
c-21 -19 -43 -35 -50 -35 -14 0 -13 1 37 39 53 40 58 38 13 -4z"/>
</g>
</svg>
